# xmcd
#
# Track frame offsets:
#	150
#	15790
#	34448
#	51275
#	69356
#	89130
#	110781
#	123927
#	145737
#	165066
#	186890
#	205575
#
# Disc length: 3129 seconds
# Revision: 0
# Processed by: cddbd v1.5.2PL0 Copyright (c) Steve Scherf et al.
# Submitted via: dBpowerAMP V12.0
#
DISCID=9d0c370c
DTITLE=Lisa Mills - I'm Changing 
DYEAR=2014
DGENRE=Blues Female
TTITLE0=Better Than This
TTITLE1=I Don't Want To Be Happy
TTITLE2=Sunshine
TTITLE3=I'm Changing
TTITLE4=Eyes So Blue
TTITLE5=Shake It
TTITLE6=Tell Me
TTITLE7=I Wish I Was In Heaven
TTITLE8=Rain In The Summertime
TTITLE9=Take My Troubles
TTITLE10=The Truth
TTITLE11=Little Wing
EXTD=
EXTT0=
EXTT1=
EXTT2=
EXTT3=
EXTT4=
EXTT5=
EXTT6=
EXTT7=
EXTT8=
EXTT9=
EXTT10=
EXTT11=
PLAYORDER=
